<?xml version="1.0" encoding="UTF-8"?>
<svg id="Layer_1" data-name="Layer 1" xmlns="http://www.w3.org/2000/svg" viewBox="0 0 1280 2249.5">
  <defs>
    <style>
      .cls-1 {
        fill: #111;
      }

      .cls-2 {
        fill: #fff;
        stroke: #111;
        stroke-miterlimit: 10;
        stroke-width: 18.52px;
      }
    </style>
  </defs>
  <path class="cls-1" d="M1239.24,1989.7c-72.49-130.44-258.21-399.26-256.08-455.55.44-11.51,3.53-22.09,3.53-22.09,10.83-26.18,24.11-64.33,31.93-111.75,8.84-53.6,8.77-107.3-2.73-182.18-9.13-59.41-28.79-175.41-93.06-312.71-100.18-214.02-251.09-347.78-341.04-415.68,23.12-107.36-36.1-108.27-44.33-138.66-4.27-15.76,4.76-29.48,11.45-41.53,43-77.4,37.65-83.93,54.63-106.55,39.27-52.3,130.59-100.89,247.72-114.61,19.08-4.34,23.16-9.46,23.67-13.1,1.57-11.31-28.76-26.13-47.89-31.93-38.19-11.58-60.16-9.19-131.82-1.66-81.44,8.56-92.73-29.09-188.92-38.35C242.71-22.03,228.71,99.52,134.97,294.32c-36.91,76.83-56.35,114.56-71.21,157-8.07,23.04-25.28,77.05-37.96,155.69-18.56,115.08-41.49,257.23-10.76,418.82,47.95,252.09,227.14,554.88,448.49,623.57,37.01,11.48,77.59,17.16,108.08,54.23,62.76,76.28,41.2,234.89,84.65,298.45,3.46,5.06,10.95,17.78,26.38,24.99,27.84,13.01,57.31-4.05,66.75,6.46,21.69,140.12,97.4,221.84,154.4,215.65,42.91-4.66,71.88-58.81,82.89-82.58,3.34,2.55,45.09,33.24,95.79,15.96,46.29-15.78,62.03-58.6,63.86-63.86,20.49,5.48,103.6,26.24,127.64-8.08,15.92-22.73-1.07-60.36-34.73-120.92Z"/>
  <ellipse class="cls-2" cx="524.8" cy="459.54" rx="75.81" ry="96.72" transform="translate(-72.33 98.94) rotate(-10.08)"/>
</svg>