<?xml version="1.0" encoding="UTF-8"?>
<svg id="Layer_1" data-name="Layer 1" xmlns="http://www.w3.org/2000/svg" viewBox="0 0 1343.78 2248.93">
  <defs>
    <style>
      .cls-1 {
        fill: #111;
      }

      .cls-2 {
        stroke: #111;
        stroke-miterlimit: 10;
        stroke-width: 17.3px;
      }

      .cls-2, .cls-3 {
        fill: #fff;
      }
    </style>
  </defs>
  <path class="cls-3" d="M912.5,2248.93c-85.51,0-163.63-83.07-198.57-204.54-11.84-1.84-23.08-5.23-33.6-10.15-32.03-14.96-48.05-39.03-54.08-48.1l-.42-.63c-28.11-41.11-35.25-94.29-42.8-150.59-6.28-46.79-13.39-99.84-32.26-122.77-8.17-9.92-19.17-13.73-46.24-21.3-6.54-1.83-13.03-3.66-19.42-5.64C244.84,1610.65,63.8,1300.21,15.44,1045.95c-31.14-163.7-8.5-304.02,9.69-416.77,12.39-76.89,29.55-132.05,38.67-158.09,12.87-36.76,28.07-68.18,53.25-120.24,5.02-10.38,10.46-21.63,16.39-33.97,10.91-22.66,20.64-44.27,30.05-65.18C221.76,122.26,276.81,0,487.07,0c20.68,0,43.24,1.17,67.06,3.45,50.94,4.9,83.08,17.28,106.53,26.31,18.43,7.09,26.84,10.34,41.64,10.34,4.05,0,8.56-.26,13.41-.77l.98-.1c35.65-3.75,59.21-6.23,81.07-6.23,24.64,0,45.66,3.19,70.3,10.65,67.32,20.42,103.45,61.89,96.66,110.93-3.06,21.83-17.4,60.33-79.12,74.35l-3.86.88-3.93.46c-92.04,10.79-158.19,47.95-180.68,77.91-2.01,2.67-2.16,2.89-6.57,13.02-5.55,12.79-13.62,31.37-31.5,64.44,22.14,25.35,39.72,59.51,37.4,113.52,131.95,107.51,237.51,241.25,306.7,389.05,67.1,143.33,85.94,266.01,93.03,312.2,11.6,75.54,12.33,133.39,2.42,193.45-6.31,38.3-16.79,76.08-31.15,112.44,13.62,40.16,89.85,162.42,136.28,236.89,35.73,57.32,69.49,111.46,92.57,152.99,32.02,57.61,71.88,129.32,28.35,191.45-15.85,22.64-48.02,49.64-111.13,49.64h0c-11.16,0-22.41-.83-33.26-2.16-16.34,18.42-39.35,36.48-71.23,47.35-17.26,5.88-35.21,8.86-53.35,8.86-10.37,0-20.18-.96-29.35-2.56-28.32,35.05-62.2,55.32-100.07,59.43-4.51.49-9.14.74-13.72.74Z"/>
  <path class="cls-1" d="M1231.47,1932.19c-67.7-121.81-241.13-372.84-239.14-425.41.41-10.75,3.29-20.63,3.29-20.63,10.11-24.45,22.51-60.07,29.82-104.36,8.26-50.06,8.19-100.2-2.55-170.13-8.52-55.48-26.88-163.81-86.9-292.02-93.55-199.86-234.48-324.77-318.48-388.18,21.59-100.26-33.72-101.1-41.4-129.49-3.98-14.72,4.44-27.53,10.69-38.78,40.16-72.28,35.15-78.38,51.02-99.5,36.67-48.84,121.95-94.21,231.33-107.03,17.81-4.05,21.63-8.83,22.1-12.24,1.47-10.56-26.85-24.4-44.72-29.82-35.66-10.81-56.18-8.58-123.1-1.55-76.05,8-86.6-27.17-176.42-35.81-246.15-23.69-259.23,89.82-346.77,271.74-34.47,71.74-52.62,106.98-66.5,146.62-7.53,21.51-23.61,71.95-35.45,145.39-17.33,107.47-38.74,240.22-10.04,391.11,44.77,235.41,212.11,518.18,418.82,582.31,34.56,10.72,72.45,16.03,100.93,50.64,58.61,71.23,38.48,219.35,79.05,278.7,3.23,4.72,10.22,16.6,24.63,23.33,26,12.15,53.51-3.78,62.34,6.03,20.26,130.85,90.96,207.17,144.18,201.38,40.08-4.35,67.12-54.92,77.41-77.12,3.12,2.38,42.11,31.04,89.45,14.91,43.23-14.73,57.92-54.72,59.63-59.63,19.13,5.12,96.75,24.51,119.2-7.55,14.87-21.23-1-56.37-32.43-112.92Z"/>
  <ellipse class="cls-2" cx="564.3" cy="503.27" rx="70.79" ry="90.32" transform="translate(-79.37 106.52) rotate(-10.08)"/>
</svg>