<?xml version="1.0" encoding="UTF-8"?>
<svg id="Layer_1" data-name="Layer 1" xmlns="http://www.w3.org/2000/svg" viewBox="0 0 1280 264.31">
  <defs>
    <style>
      .cls-1 {
        fill: #111;
      }

      .cls-2, .cls-3 {
        fill: #fff;
      }

      .cls-3 {
        stroke: #111;
        stroke-miterlimit: 10;
        stroke-width: 2.03px;
      }
    </style>
  </defs>
  <g>
    <path class="cls-2" d="M313.88,45.5v23.21h-46.16v150.21h-28.45V68.71h-46.41v-23.21h121.02Z"/>
    <path class="cls-2" d="M467.08,81.43v137.48h-28.44v-16.22c-4.49,5.66-10.35,10.11-17.59,13.35-7.24,3.24-14.93,4.87-23.08,4.87-10.82,0-20.5-2.25-29.07-6.74-8.57-4.49-15.31-11.14-20.21-19.96-4.91-8.81-7.36-19.46-7.36-31.94v-80.84h28.2v76.6c0,12.31,3.08,21.75,9.23,28.32,6.15,6.57,14.55,9.86,25.2,9.86s19.09-3.28,25.33-9.86c6.24-6.57,9.36-16.01,9.36-28.32v-76.6h28.44Z"/>
    <path class="cls-2" d="M506.01,57.98c-3.49-3.49-5.24-7.82-5.24-12.97s1.75-9.48,5.24-12.97c3.49-3.49,7.82-5.24,12.97-5.24s9.23,1.75,12.73,5.24c3.49,3.49,5.24,7.82,5.24,12.97s-1.75,9.48-5.24,12.97c-3.49,3.49-7.74,5.24-12.73,5.24s-9.48-1.75-12.97-5.24ZM532.95,81.43v137.48h-28.45V81.43h28.45Z"/>
    <path class="cls-2" d="M735.56,47.5v171.42h-11.23V70.95l-65.87,147.96h-8.98l-66.12-147.96v147.96h-11.23V47.5h11.98l69.87,156.7,69.87-156.7h11.73Z"/>
    <path class="cls-2" d="M898.24,155.54h-117.02c.33,12.14,2.99,22.38,7.98,30.69,4.99,8.32,11.56,14.56,19.71,18.71,8.15,4.16,17.05,6.24,26.7,6.24,13.31,0,24.45-3.28,33.44-9.86,8.98-6.57,14.64-15.51,16.97-26.82h11.73c-2.66,13.81-9.48,24.99-20.46,33.56-10.98,8.57-24.87,12.85-41.67,12.85-12.64,0-23.95-2.83-33.93-8.48-9.98-5.65-17.8-13.76-23.45-24.33-5.66-10.56-8.48-22.91-8.48-37.05s2.78-26.45,8.36-36.93c5.57-10.48,13.35-18.5,23.33-24.08,9.98-5.57,21.37-8.36,34.18-8.36s24.24,2.79,33.81,8.36c9.56,5.58,16.84,12.98,21.83,22.21,4.99,9.23,7.49,19.17,7.49,29.82,0,5.99-.17,10.48-.5,13.47ZM881.15,115.87c-4.74-8.32-11.19-14.51-19.34-18.59-8.15-4.07-16.97-6.11-26.45-6.11s-18.26,2.04-26.32,6.11c-8.07,4.08-14.64,10.27-19.71,18.59-5.08,8.32-7.78,18.46-8.11,30.44h106.29c.5-11.98-1.62-22.12-6.36-30.44Z"/>
    <path class="cls-2" d="M934.05,114.37c5.57-10.48,13.31-18.55,23.21-24.2,9.9-5.65,21.17-8.48,33.81-8.48,13.81,0,25.78,3.45,35.93,10.35,10.14,6.9,17.3,15.84,21.46,26.82V34.27h11.23v184.64h-11.23v-35.93c-3.99,11.15-10.98,20.25-20.96,27.32-9.98,7.07-22.13,10.6-36.43,10.6-12.64,0-23.91-2.87-33.81-8.61-9.9-5.74-17.63-13.89-23.21-24.45-5.57-10.56-8.36-22.83-8.36-36.8s2.78-26.2,8.36-36.68ZM1041.09,119.73c-4.91-9.06-11.6-16.05-20.09-20.96-8.48-4.9-17.97-7.36-28.44-7.36s-20.63,2.37-28.94,7.11c-8.32,4.74-14.81,11.6-19.46,20.59-4.66,8.98-6.99,19.63-6.99,31.94s2.33,22.96,6.99,31.94c4.65,8.98,11.19,15.89,19.59,20.71,8.4,4.83,18,7.24,28.82,7.24s20-2.45,28.57-7.36c8.57-4.9,15.26-11.89,20.09-20.96,4.82-9.06,7.24-19.59,7.24-31.56s-2.46-22.25-7.36-31.31Z"/>
    <path class="cls-2" d="M1099.6,50.62c-1.83-1.75-2.74-4.12-2.74-7.11,0-2.83.91-5.15,2.74-6.99,1.83-1.83,4.07-2.75,6.74-2.75s4.9.92,6.74,2.75c1.83,1.83,2.75,4.16,2.75,6.99,0,2.99-.92,5.36-2.75,7.11-1.83,1.75-4.08,2.62-6.74,2.62s-4.91-.87-6.74-2.62ZM1111.83,83.43v135.49h-11.23V83.43h11.23Z"/>
    <path class="cls-2" d="M1154.37,114.37c5.57-10.48,13.31-18.55,23.21-24.2,9.9-5.65,21.17-8.48,33.81-8.48,14.3,0,26.45,3.49,36.43,10.48,9.98,6.99,16.97,15.89,20.96,26.7v-35.43h11.23v135.49h-11.23v-35.68c-3.99,10.98-11.02,20-21.08,27.07-10.07,7.07-22.17,10.6-36.31,10.6-12.64,0-23.91-2.87-33.81-8.61-9.9-5.74-17.63-13.89-23.21-24.45-5.57-10.56-8.36-22.83-8.36-36.8s2.78-26.2,8.36-36.68ZM1261.41,119.73c-4.91-9.06-11.6-16.05-20.09-20.96-8.48-4.9-17.97-7.36-28.44-7.36s-20.63,2.37-28.94,7.11c-8.32,4.74-14.81,11.6-19.46,20.59-4.66,8.98-6.99,19.63-6.99,31.94s2.33,22.96,6.99,31.94c4.65,8.98,11.19,15.89,19.59,20.71,8.4,4.83,18,7.24,28.82,7.24s20-2.45,28.57-7.36c8.57-4.9,15.26-11.89,20.09-20.96,4.82-9.06,7.24-19.59,7.24-31.56s-2.46-22.25-7.36-31.31Z"/>
  </g>
  <g>
    <path class="cls-2" d="M107.24,264.31c-10.05,0-19.23-9.76-23.34-24.04-1.39-.22-2.71-.62-3.95-1.19-3.76-1.76-5.64-4.58-6.35-5.65l-.05-.07c-3.31-4.84-4.15-11.09-5.03-17.71-.74-5.5-1.57-11.73-3.79-14.43-.96-1.17-2.25-1.61-5.44-2.5-.77-.21-1.53-.43-2.28-.66C28.77,189.29,7.5,152.8,1.81,122.92c-3.66-19.24-1-35.73,1.14-48.98,1.46-9.03,3.47-15.52,4.54-18.58,1.51-4.32,3.3-8.02,6.26-14.14.59-1.22,1.23-2.54,1.92-3.99,1.28-2.66,2.43-5.21,3.53-7.66C26.06,14.37,32.53,0,57.24,0c2.43,0,5.08.14,7.88.41,5.99.58,9.76,2.03,12.52,3.09,2.17.83,3.15,1.21,4.89,1.21.48,0,1.01-.03,1.58-.09h.11c4.19-.45,6.96-.74,9.53-.74,2.9,0,5.37.37,8.27,1.25,7.91,2.4,12.16,7.27,11.36,13.04-.36,2.55-2.04,7.08-9.29,8.73l-.46.1-.46.05c-10.82,1.27-18.59,5.63-21.23,9.16-.24.31-.25.34-.77,1.53-.65,1.5-1.6,3.69-3.7,7.57,2.6,2.98,4.67,6.99,4.4,13.34,15.51,12.63,27.91,28.35,36.04,45.72,7.89,16.84,10.1,31.26,10.93,36.69,1.36,8.88,1.45,15.68.28,22.74-.74,4.5-1.97,8.94-3.66,13.22,1.6,4.72,10.56,19.09,16.02,27.84,4.2,6.73,8.17,13.1,10.88,17.98,3.76,6.77,8.45,15.2,3.33,22.5-1.86,2.66-5.64,5.84-13.06,5.84h0c-1.31,0-2.63-.1-3.91-.26-1.92,2.16-4.63,4.29-8.37,5.56-2.03.69-4.14,1.04-6.27,1.04-1.22,0-2.37-.11-3.45-.3-3.33,4.12-7.31,6.5-11.76,6.99-.53.06-1.07.09-1.61.09Z"/>
    <path class="cls-1" d="M144.73,227.08c-7.96-14.32-28.34-43.82-28.1-50,.05-1.26.39-2.42.39-2.42,1.19-2.87,2.65-7.06,3.5-12.26.97-5.88.96-11.78-.3-19.99-1-6.52-3.16-19.25-10.21-34.32-10.99-23.49-27.56-38.17-37.43-45.62,2.54-11.78-3.96-11.88-4.87-15.22-.47-1.73.52-3.24,1.26-4.56,4.72-8.49,4.13-9.21,6-11.69,4.31-5.74,14.33-11.07,27.19-12.58,2.09-.48,2.54-1.04,2.6-1.44.17-1.24-3.16-2.87-5.26-3.5-4.19-1.27-6.6-1.01-14.47-.18-8.94.94-10.18-3.19-20.73-4.21-28.93-2.78-30.47,10.56-40.75,31.94-4.05,8.43-6.18,12.57-7.82,17.23-.89,2.53-2.77,8.46-4.17,17.09-2.04,12.63-4.55,28.23-1.18,45.97,5.26,27.67,24.93,60.9,49.22,68.44,4.06,1.26,8.52,1.88,11.86,5.95,6.89,8.37,4.52,25.78,9.29,32.75.38.56,1.2,1.95,2.89,2.74,3.06,1.43,6.29-.44,7.33.71,2.38,15.38,10.69,24.35,16.94,23.67,4.71-.51,7.89-6.45,9.1-9.06.37.28,4.95,3.65,10.51,1.75,5.08-1.73,6.81-6.43,7.01-7.01,2.25.6,11.37,2.88,14.01-.89,1.75-2.5-.12-6.62-3.81-13.27Z"/>
    <ellipse class="cls-3" cx="66.32" cy="59.15" rx="8.32" ry="10.61" transform="translate(-9.33 12.52) rotate(-10.08)"/>
  </g>
</svg>